<svg xmlns:xlink="http://www.w3.org/1999/xlink" xmlns:dc="http://purl.org/dc/elements/1.1/" xmlns:cc="http://creativecommons.org/ns#" xmlns:rdf="http://www.w3.org/1999/02/22-rdf-syntax-ns#" xmlns:svg="http://www.w3.org/2000/svg" xmlns="http://www.w3.org/2000/svg" xmlns:sodipodi="http://sodipodi.sourceforge.net/DTD/sodipodi-0.dtd" xmlns:inkscape="http://www.inkscape.org/namespaces/inkscape" xml:space="preserve" height="20.211" viewBox="0 0 172.70187 20.211251" width="172.7" version="1.1" id="svg2" inkscape:version="0.91 r" sodipodi:docname="ravenpack-white.svg"><metadata id="metadata119"><rdf:RDF><cc:Work rdf:about=""><dc:format>image/svg+xml</dc:format><dc:type rdf:resource="http://purl.org/dc/dcmitype/StillImage"/><dc:title/></cc:Work></rdf:RDF></metadata><sodipodi:namedview pagecolor="#000000" bordercolor="#666666" borderopacity="1" objecttolerance="10" gridtolerance="10" guidetolerance="10" inkscape:pageopacity="0" inkscape:pageshadow="2" inkscape:window-width="1920" inkscape:window-height="1056" id="namedview117" showgrid="false" inkscape:zoom="2.5057867" inkscape:cx="130.23471" inkscape:cy="30.769961" inkscape:window-x="1920" inkscape:window-y="24" inkscape:window-maximized="1" inkscape:current-layer="svg2"/><defs id="defs4"><clipPath id="a" clipPathUnits="userSpaceOnUse"><path d="m0 28.464h146.88v-28.464h-146.88v28.464z" id="path7"/></clipPath></defs><g id="logotext"><g id="g13" transform="matrix(1.25,0,0,-1.25,45.2197,9.3145)"><path inkscape:connector-curvature="0" style="fill:#ffffff" id="path15" d="m 0,0 c -0.413,-0.275 -1.08,-0.413 -2.004,-0.413 l -7.943,0 0,4.727 7.537,0 c 1.217,0 2.025,-0.127 2.425,-0.38 0.4,-0.252 0.601,-0.735 0.601,-1.443 l 0,-1.115 C 0.616,0.735 0.409,0.277 0,0 m -11.607,5.684 0,-12.34 1.66,0 0,4.871 8.077,0 c 0.868,0 1.464,-0.117 1.791,-0.352 0.429,-0.305 0.643,-0.907 0.643,-1.807 l 0,-2.712 1.557,0 0,3.154 c 0,0.618 -0.142,1.108 -0.422,1.465 -0.34,0.429 -0.897,0.721 -1.675,0.879 0.71,0.067 1.246,0.258 1.607,0.574 0.429,0.373 0.643,0.962 0.643,1.774 l 0,0.997 c 0,1.273 -0.243,2.151 -0.727,2.636 -0.574,0.575 -1.695,0.861 -3.364,0.861 l -9.79,0"/></g><g id="g17" transform="matrix(1.25,0,0,-1.25,60.81095,12.847)"><path inkscape:connector-curvature="0" style="fill:#ffffff" id="path19" d="m 0,0 c 0.479,-0.165 0.718,-0.527 0.718,-1.089 l 0,-0.406 c 0,-0.53 -0.259,-0.875 -0.778,-1.033 -0.517,-0.159 -1.475,-0.237 -2.873,-0.237 l -1.926,0 c -0.968,0 -1.6,0.1 -1.893,0.296 -0.293,0.198 -0.438,0.556 -0.438,1.074 l 0,0.286 c 0,0.531 0.166,0.889 0.498,1.074 0.331,0.187 0.964,0.279 1.901,0.279 l 2.229,0 C -1.333,0.244 -0.479,0.161 0,0 m -0.187,-3.757 c 0.389,0.134 0.691,0.403 0.905,0.809 l 0,-0.881 1.455,0 0,5.826 c 0,1.204 -0.417,2.031 -1.251,2.481 -0.654,0.349 -1.747,0.525 -3.278,0.525 l -2.299,0 c -1.308,0 -2.236,-0.171 -2.782,-0.517 -0.546,-0.342 -0.82,-0.914 -0.82,-1.714 l 0,-0.421 1.455,0 0,0.304 c 0,0.395 0.136,0.676 0.406,0.845 0.327,0.204 0.917,0.304 1.774,0.304 l 2.129,0 c 1.206,0 2.042,-0.11 2.509,-0.327 C 0.483,3.257 0.718,2.776 0.718,2.033 L 0.685,0.396 C 0.425,0.825 0.09,1.104 -0.321,1.239 -0.733,1.373 -1.423,1.442 -2.392,1.442 l -2.333,0 c -1.419,0 -2.393,-0.127 -2.924,-0.373 -0.664,-0.303 -0.997,-0.917 -0.997,-1.84 l 0,-0.591 c 0,-0.887 0.187,-1.529 0.557,-1.926 0.428,-0.447 1.166,-0.676 2.215,-0.676 l 3.482,0 c 1.081,0 1.817,0.071 2.205,0.207"/></g><g id="g21" transform="matrix(1.25,0,0,-1.25,64.0797,6.762)"><path inkscape:connector-curvature="0" style="fill:#ffffff" id="path23" d="m 0,0 4.866,-8.697 1.722,0 L 11.464,0 9.926,0.001 5.728,-7.529 1.537,0.001 0,0 Z"/></g><g id="g25" transform="matrix(1.25,0,0,-1.25,90.4597,8.78575)"><path inkscape:connector-curvature="0" style="fill:#ffffff" id="path27" d="m 0,0 c 0.418,-0.305 0.624,-0.709 0.624,-1.214 l 0,-0.572 -8.134,0 c 0,0.977 0.201,1.612 0.6,1.904 0.4,0.292 1.194,0.437 2.379,0.437 l 2.13,0 C -1.318,0.555 -0.518,0.371 0,0 M -7.629,1.178 C -8.519,0.639 -8.965,-0.34 -8.965,-1.759 l 0,-1.888 c 0,-1.114 0.267,-1.965 0.796,-2.55 0.619,-0.675 1.709,-1.016 3.264,-1.016 l 2.641,0 c 1.452,0 2.52,0.184 3.194,0.54 0.768,0.408 1.151,1.086 1.151,2.046 l 0,0.185 -1.457,0 c 0,-0.641 -0.213,-1.078 -0.642,-1.301 -0.347,-0.179 -1.018,-0.271 -2.011,-0.271 l -1.997,0 c -1.305,0 -2.213,0.171 -2.722,0.518 -0.508,0.343 -0.762,1.002 -0.762,1.971 l 0,0.541 9.591,0 0,0.977 c 0,1.449 -0.426,2.468 -1.269,3.051 -0.674,0.473 -1.749,0.71 -3.213,0.71 l -2.334,0 c -1.297,0 -2.261,-0.193 -2.894,-0.576"/></g><g id="g29" transform="matrix(1.25,0,0,-1.25,95.20095,6.76075)"><path inkscape:connector-curvature="0" style="fill:#ffffff" id="path31" d="m 0,0 0,-8.698 1.455,0 0,4.947 c 0,1.048 0.28,1.757 0.837,2.129 0.559,0.372 1.673,0.557 3.34,0.557 l 0.371,0 c 1.318,0 2.201,-0.192 2.65,-0.573 0.352,-0.295 0.526,-0.807 0.526,-1.537 l 0,-5.523 1.457,0 0,5.876 c 0,0.877 -0.259,1.571 -0.78,2.078 C 9.26,-0.161 8.326,0.134 7.05,0.134 l -2.179,0 C 3.899,0.134 3.139,0.018 2.588,-0.213 2.036,-0.445 1.625,-0.875 1.354,-1.505 L 1.354,0 0,0 Z"/></g><g id="g33" transform="matrix(1.25,0,0,-1.25,125.3622,4.41575)"><path inkscape:connector-curvature="0" style="fill:#ffffff" id="path35" d="m 0,0 c 0.361,-0.263 0.539,-0.739 0.539,-1.422 l 0,-1.161 c 0,-0.617 -0.174,-1.062 -0.531,-1.338 -0.354,-0.273 -0.876,-0.41 -1.563,-0.41 l -8.158,0 0,4.727 8.024,0 C -0.925,0.396 -0.36,0.263 0,0 m -11.375,1.766 0,-12.34 1.662,0 0,4.871 8.095,0 c 1.667,0 2.755,0.344 3.261,1.029 0.373,0.504 0.558,1.534 0.558,3.085 0,1.359 -0.305,2.281 -0.912,2.765 -0.497,0.394 -1.358,0.59 -2.588,0.59 l -10.076,0"/></g><g id="g37" transform="matrix(1.25,0,0,-1.25,139.4497,12.847)"><path inkscape:connector-curvature="0" style="fill:#ffffff" id="path39" d="m 0,0 c 0.478,-0.165 0.718,-0.527 0.718,-1.089 l 0,-0.406 c 0,-0.53 -0.256,-0.875 -0.776,-1.033 -0.518,-0.159 -1.477,-0.237 -2.875,-0.237 l -1.926,0 c -0.968,0 -1.6,0.1 -1.891,0.296 -0.292,0.198 -0.439,0.556 -0.439,1.074 l 0,0.286 c 0,0.531 0.166,0.889 0.499,1.074 0.331,0.187 0.961,0.279 1.898,0.279 l 2.232,0 C -1.332,0.244 -0.479,0.161 0,0 m -0.186,-3.757 c 0.389,0.134 0.689,0.403 0.904,0.809 l 0,-0.881 1.457,0 0,5.826 c 0,1.204 -0.42,2.031 -1.253,2.481 -0.652,0.349 -1.745,0.525 -3.277,0.525 l -2.299,0 c -1.309,0 -2.237,-0.171 -2.783,-0.517 -0.544,-0.342 -0.82,-0.914 -0.82,-1.714 l 0,-0.421 1.457,0 0,0.304 c 0,0.395 0.134,0.676 0.403,0.845 0.329,0.204 0.919,0.304 1.775,0.304 l 2.127,0 c 1.208,0 2.045,-0.11 2.513,-0.327 0.466,-0.22 0.7,-0.701 0.7,-1.444 L 0.685,0.396 C 0.427,0.825 0.089,1.104 -0.319,1.239 -0.732,1.373 -1.423,1.442 -2.391,1.442 l -2.331,0 c -1.421,0 -2.398,-0.127 -2.926,-0.373 -0.665,-0.303 -0.998,-0.917 -0.998,-1.84 l 0,-0.591 c 0,-0.887 0.184,-1.529 0.559,-1.926 0.427,-0.447 1.165,-0.676 2.215,-0.676 l 3.481,0 c 1.08,0 1.817,0.071 2.205,0.207"/></g><g id="g41" transform="matrix(1.25,0,0,-1.25,145.8372,7.3145)"><path inkscape:connector-curvature="0" style="fill:#ffffff" id="path43" d="m 0,0 c -0.904,-0.539 -1.354,-1.518 -1.354,-2.937 l 0,-1.942 c 0,-1.394 0.442,-2.38 1.321,-2.952 0.573,-0.37 1.338,-0.56 2.297,-0.56 l 3.278,0 c 1.355,0 2.323,0.24 2.908,0.709 0.588,0.477 0.884,1.258 0.884,2.347 l 0,0.25 -1.355,0 0,-0.284 C 7.979,-6.033 7.73,-6.518 7.235,-6.818 6.828,-7.068 6.249,-7.191 5.494,-7.191 l -2.451,0 c -0.959,0 -1.671,0.159 -2.131,0.473 -0.541,0.369 -0.809,1.007 -0.809,1.906 l 0,1.826 c 0,0.765 0.156,1.334 0.471,1.707 0.371,0.437 1.099,0.656 2.179,0.656 l 2.674,0 c 0.8,0 1.399,-0.126 1.801,-0.38 0.396,-0.254 0.594,-0.725 0.594,-1.411 l 0,-0.202 1.358,0 0,0.236 c 0,0.957 -0.302,1.69 -0.908,2.195 C 7.669,0.323 6.714,0.576 5.408,0.576 l -2.434,0 C 1.632,0.576 0.64,0.383 0,0"/></g><g id="g45" transform="matrix(1.25,0,0,-1.25,159.4247,2.2095)"><path inkscape:connector-curvature="0" style="fill:#ffffff" id="path47" d="m 0,0 0,-12.34 1.454,0 0,4.206 0.622,-0.002 6.248,-4.191 2.256,-0.015 0.037,0.038 -7.082,4.776 5.947,3.851 L 9.447,-3.639 7.185,-3.642 2.17,-6.945 1.454,-6.936 1.454,0 0,0 Z"/></g></g><g transform="matrix(1.25,0,0,-1.25,3.0872,2.36825)" id="g49"><path d="M 0,0 C 0.312,0 0.563,0.252 0.563,0.563 0.563,0.875 0.312,1.125 0,1.125 -0.312,1.125 -0.563,0.875 -0.563,0.563 -0.563,0.252 -0.312,0 0,0" id="path51" inkscape:connector-curvature="0" style="fill:#edb820"/></g><g transform="matrix(1.25,0,0,-1.25,5.37295,3.2345)" id="g53"><path d="m 0,0 c -0.312,0 -0.563,-0.251 -0.563,-0.563 0,-0.31 0.251,-0.564 0.563,-0.564 0.312,0 0.564,0.254 0.564,0.564 C 0.564,-0.251 0.312,0 0,0" id="path55" inkscape:connector-curvature="0" style="fill:#edb820"/></g><g transform="matrix(1.25,0,0,-1.25,7.63845,5.51825)" id="g57"><path d="m 0,0 c -0.311,0 -0.564,-0.252 -0.564,-0.562 0,-0.311 0.253,-0.565 0.564,-0.565 0.312,0 0.564,0.254 0.564,0.565 C 0.564,-0.252 0.312,0 0,0" id="path59" inkscape:connector-curvature="0" style="fill:#edb820"/></g><g transform="matrix(1.25,0,0,-1.25,9.9347,9.197)" id="g61"><path d="M 0,0 C 0.312,0 0.564,0.252 0.564,0.564 0.564,0.875 0.312,1.127 0,1.127 -0.311,1.127 -0.563,0.875 -0.563,0.564 -0.563,0.252 -0.311,0 0,0" id="path63" inkscape:connector-curvature="0" style="fill:#edb820"/></g><g transform="matrix(1.25,0,0,-1.25,9.9347,11.6295)" id="g65"><path d="M 0,0 C 0.312,0 0.564,0.25 0.564,0.564 0.564,0.875 0.312,1.125 0,1.125 -0.311,1.125 -0.563,0.875 -0.563,0.564 -0.563,0.25 -0.311,0 0,0" id="path67" inkscape:connector-curvature="0" style="fill:#edb820"/></g><g transform="matrix(1.25,0,0,-1.25,7.63845,13.88075)" id="g69"><path d="M 0,0 C 0.312,0 0.564,0.252 0.564,0.562 0.564,0.875 0.312,1.125 0,1.125 -0.311,1.125 -0.564,0.875 -0.564,0.562 -0.564,0.252 -0.311,0 0,0" id="path71" inkscape:connector-curvature="0" style="fill:#edb820"/></g><g transform="matrix(1.25,0,0,-1.25,5.37295,16.165375)" id="g73"><path d="M 0,0 C 0.312,0 0.564,0.252 0.564,0.564 0.564,0.875 0.312,1.127 0,1.127 -0.312,1.127 -0.563,0.875 -0.563,0.564 -0.563,0.252 -0.312,0 0,0" id="path75" inkscape:connector-curvature="0" style="fill:#edb820"/></g><g transform="matrix(1.25,0,0,-1.25,3.0872,17.0175)" id="g77"><path d="m 0,0 c -0.312,0 -0.563,-0.252 -0.563,-0.564 0,-0.311 0.251,-0.563 0.563,-0.563 0.312,0 0.563,0.252 0.563,0.563 C 0.563,-0.252 0.312,0 0,0" id="path79" inkscape:connector-curvature="0" style="fill:#edb820"/></g><g transform="matrix(1.25,0,0,-1.25,5.5432,13.1995)" id="g81"><path d="M 0,0 C 0,0.232 -0.187,0.42 -0.418,0.42 -0.65,0.42 -0.836,0.232 -0.836,0 c 0,-0.23 0.186,-0.418 0.418,-0.418 C -0.187,-0.418 0,-0.23 0,0" id="path83" inkscape:connector-curvature="0" style="fill:#edb820"/></g><g transform="matrix(1.25,0,0,-1.25,2.78745,15.960375)" id="g85"><path d="M 0,0 C 0.231,0 0.419,0.186 0.419,0.416 0.419,0.648 0.231,0.834 0,0.834 -0.231,0.834 -0.419,0.648 -0.419,0.416 -0.419,0.186 -0.231,0 0,0" id="path87" inkscape:connector-curvature="0" style="fill:#edb820"/></g><g transform="matrix(1.25,0,0,-1.25,0.52245,17.156625)" id="g89"><path d="m 0,0 c -0.231,0 -0.418,-0.187 -0.418,-0.418 0,-0.232 0.187,-0.418 0.418,-0.418 0.232,0 0.419,0.186 0.419,0.418 C 0.419,-0.187 0.232,0 0,0" id="path91" inkscape:connector-curvature="0" style="fill:#edb820"/></g><g transform="matrix(1.25,0,0,-1.25,7.86345,10.85325)" id="g93"><path d="m 0,0 c 0,0.232 -0.188,0.418 -0.419,0.418 -0.232,0 -0.419,-0.186 -0.419,-0.418 0,-0.23 0.187,-0.416 0.419,-0.416 C -0.188,-0.416 0,-0.23 0,0" id="path95" inkscape:connector-curvature="0" style="fill:#edb820"/></g><g transform="matrix(1.25,0,0,-1.25,6.7737,8.4845)" id="g97"><path d="m 0,0 c 0,-0.23 0.187,-0.417 0.418,-0.417 0.231,0 0.419,0.187 0.419,0.417 0,0.232 -0.188,0.42 -0.419,0.42 C 0.187,0.42 0,0.232 0,0" id="path99" inkscape:connector-curvature="0" style="fill:#edb820"/></g><g transform="matrix(1.25,0,0,-1.25,4.487325,6.20825)" id="g101"><path d="m 0,0 c 0,-0.23 0.187,-0.42 0.417,-0.42 0.232,0 0.42,0.19 0.42,0.42 0,0.229 -0.188,0.418 -0.42,0.418 C 0.187,0.418 0,0.229 0,0" id="path103" inkscape:connector-curvature="0" style="fill:#edb820"/></g><g transform="matrix(1.25,0,0,-1.25,2.766075,4.49075)" id="g105"><path d="M 0,0 C 0.231,0 0.419,0.187 0.419,0.419 0.419,0.649 0.231,0.835 0,0.835 -0.231,0.835 -0.419,0.649 -0.419,0.419 -0.419,0.187 -0.231,0 0,0" id="path107" inkscape:connector-curvature="0" style="fill:#edb820"/></g><g transform="matrix(1.25,0,0,-1.25,0.52245,1.2145)" id="g109"><path d="m 0,0 c -0.231,0 -0.418,-0.187 -0.418,-0.421 0,-0.228 0.187,-0.418 0.418,-0.418 0.232,0 0.419,0.19 0.419,0.418 C 0.419,-0.187 0.232,0 0,0" id="path111" inkscape:connector-curvature="0" style="fill:#edb820"/></g><g transform="matrix(1.25,0,0,-1.25,18.19345,10.3945)" id="g113"><path d="m 0,0 c -0.231,0 -0.418,0.19 -0.418,0.42 0,0.231 0.187,0.418 0.418,0.418 0.231,0 0.419,-0.187 0.419,-0.418 C 0.419,0.19 0.231,0 0,0 m -1.897,1.743 c -0.232,0 -0.42,0.186 -0.42,0.417 0,0.232 0.188,0.419 0.42,0.419 0.23,0 0.418,-0.187 0.418,-0.419 0,-0.231 -0.188,-0.417 -0.418,-0.417 m 0,-3.483 c -0.232,0 -0.42,0.189 -0.42,0.418 0,0.23 0.188,0.418 0.42,0.418 0.23,0 0.418,-0.188 0.418,-0.418 0,-0.229 -0.188,-0.418 -0.418,-0.418 m -1.111,2.143 c 0,0.34 0.275,0.615 0.614,0.615 0.341,0 0.616,-0.275 0.616,-0.615 0,-0.341 -0.275,-0.614 -0.616,-0.614 -0.339,0 -0.614,0.273 -0.614,0.614 m -0.684,3.132 c -0.231,0 -0.419,0.187 -0.419,0.419 0,0.232 0.188,0.418 0.419,0.418 0.232,0 0.419,-0.186 0.419,-0.418 0,-0.232 -0.187,-0.419 -0.419,-0.419 m 0,-7.068 c -0.231,0 -0.419,0.187 -0.419,0.42 0,0.23 0.188,0.416 0.419,0.416 0.232,0 0.419,-0.186 0.419,-0.416 0,-0.233 -0.187,-0.42 -0.419,-0.42 m -1.095,2.211 c 0,0.34 0.277,0.615 0.616,0.615 0.34,0 0.615,-0.275 0.615,-0.615 0,-0.338 -0.275,-0.615 -0.615,-0.615 -0.339,0 -0.616,0.277 -0.616,0.615 m 0.616,2.869 c -0.339,0 -0.616,0.276 -0.616,0.613 0,0.34 0.277,0.614 0.616,0.614 0.34,0 0.615,-0.274 0.615,-0.614 0,-0.337 -0.275,-0.613 -0.615,-0.613 m -1.308,-6.881 c -0.231,0 -0.418,0.189 -0.418,0.418 0,0.23 0.187,0.42 0.418,0.42 0.231,0 0.419,-0.19 0.419,-0.42 0,-0.229 -0.188,-0.418 -0.419,-0.418 m -1.137,2.168 c 0,0.34 0.277,0.615 0.616,0.615 0.34,0 0.616,-0.275 0.616,-0.615 0,-0.34 -0.276,-0.613 -0.616,-0.613 -0.339,0 -0.616,0.273 -0.616,0.613 m -1.196,-2.389 c -0.34,0 -0.615,0.276 -0.615,0.614 0,0.339 0.275,0.615 0.615,0.615 0.34,0 0.616,-0.276 0.616,-0.615 0,-0.338 -0.276,-0.614 -0.616,-0.614 m 2.308,10.882 c -0.232,0 -0.419,0.189 -0.419,0.419 0,0.23 0.187,0.418 0.419,0.418 0.232,0 0.419,-0.188 0.419,-0.418 0,-0.23 -0.187,-0.419 -0.419,-0.419 M -6,3.39 c -0.339,0 -0.616,0.276 -0.616,0.614 0,0.342 0.277,0.616 0.616,0.616 0.34,0 0.616,-0.274 0.616,-0.616 C -5.384,3.666 -5.66,3.39 -6,3.39 m -1.795,1.775 c -0.339,0 -0.615,0.275 -0.615,0.615 0,0.341 0.276,0.615 0.615,0.615 0.34,0 0.615,-0.274 0.615,-0.615 0,-0.34 -0.275,-0.615 -0.615,-0.615 M 4.721,0.491 4.697,0.514 l -7.813,7.801 -2.419,0 -0.571,0 -0.681,0 -1.378,0 -1.505,0 -1.442,0 0,-0.154 0.143,-0.118 c 0.281,-0.281 0.342,-0.676 0.137,-0.887 L -10.838,7.148 -10.987,7 c -0.11,-0.099 -0.18,-0.24 -0.18,-0.398 0,-0.293 0.239,-0.531 0.532,-0.531 0.149,0 0.281,0.058 0.377,0.154 l 0.172,0.17 0.004,0.006 c 0.21,0.211 0.611,0.15 0.895,-0.133 0.282,-0.28 0.342,-0.68 0.135,-0.893 L -9.059,5.372 -9.057,5.368 -9.206,5.221 C -9.315,5.124 -9.385,4.982 -9.385,4.823 c 0,-0.294 0.239,-0.531 0.532,-0.531 0.147,0 0.281,0.058 0.377,0.155 l 0,-0.001 0.171,0.172 0.034,0.033 c 0.216,0.173 0.592,0.107 0.863,-0.161 0.27,-0.271 0.335,-0.648 0.158,-0.865 L -7.431,3.446 C -7.541,3.348 -7.61,3.206 -7.61,3.047 c 0,-0.293 0.238,-0.531 0.532,-0.531 0.147,0 0.28,0.059 0.376,0.154 l 0.198,0.198 c 0.215,0.187 0.599,0.123 0.874,-0.151 0.282,-0.284 0.341,-0.681 0.134,-0.892 l 0.001,0 -0.007,-0.006 0.003,-0.002 -0.155,-0.156 c -0.11,-0.098 -0.179,-0.239 -0.179,-0.399 0,-0.292 0.238,-0.531 0.531,-0.531 0.122,0 0.233,0.042 0.322,0.109 0.14,0.217 0.383,0.361 0.66,0.361 0.432,0 0.782,-0.35 0.782,-0.781 0,-0.432 -0.35,-0.781 -0.782,-0.781 -0.263,0 -0.495,0.129 -0.637,0.328 -0.087,0.06 -0.194,0.097 -0.31,0.097 -0.293,0 -0.531,-0.238 -0.531,-0.531 0,-0.144 0.059,-0.279 0.155,-0.375 l 0.155,-0.156 c 0.202,-0.211 0.142,-0.606 -0.139,-0.887 -0.282,-0.281 -0.681,-0.342 -0.893,-0.135 l -0.006,0.008 -0.001,0 -0.119,0.117 c -0.098,0.112 -0.24,0.182 -0.398,0.182 -0.294,0 -0.532,-0.238 -0.532,-0.533 0,-0.149 0.059,-0.279 0.155,-0.375 L -7.279,-2.764 -7.28,-2.766 C -7.071,-2.975 -7.13,-3.373 -7.413,-3.658 -7.696,-3.939 -8.094,-4 -8.305,-3.791 l -0.003,0 -10e-4,0 -0.124,0.121 c -0.097,0.111 -0.239,0.18 -0.398,0.18 -0.294,0 -0.532,-0.239 -0.532,-0.531 0,-0.147 0.059,-0.28 0.155,-0.375 l 0.147,-0.147 -10e-4,-0.002 c 0.209,-0.211 0.15,-0.609 -0.133,-0.892 -0.283,-0.282 -0.681,-0.34 -0.892,-0.133 l -0.003,0 -0.002,0 -0.118,0.119 c -0.098,0.107 -0.239,0.18 -0.399,0.18 -0.293,0 -0.532,-0.241 -0.532,-0.534 0,-0.146 0.06,-0.281 0.155,-0.377 l 0.143,-0.138 -0.003,-0.004 10e-4,-0.002 c 0.21,-0.211 0.152,-0.611 -0.133,-0.895 l -0.134,-0.113 0,-0.52 1.802,0 1.505,0 0.65,0 4.086,0 7.746,7.735 0.062,0.062 c 0.058,0.073 0.094,0.162 0.094,0.263 0,0.111 -0.044,0.211 -0.112,0.285" id="path115" inkscape:connector-curvature="0" style="fill:#edb820"/></g></svg>